<svg xmlns="http://www.w3.org/2000/svg"
     viewBox="0 0 85.6 54"
     role="img"
     aria-label="Apple Pay">

  <!-- White card -->
  <rect x="0" y="0" width="85.6" height="54"
        rx="4" ry="4"
        fill="#ffffff"/>

  <svg x="10.16"
       y="11.16"
       width="65.28"
       height="31.68"
       viewBox="24 32 107 44"
       preserveAspectRatio="xMidYMid meet"
       xmlns="http://www.w3.org/2000/svg">

    <path fill="#000" fill-rule="evenodd" clip-rule="evenodd"
      d="M45.1855 37.6726C43.9551 39.159 41.9861 40.3312 40.0171 40.1636C39.7709 38.154 40.7347 36.019 41.863 34.7004C43.0934 33.1722 45.247 32.0836 46.9905 32C47.1956 34.0932 46.3957 36.1447 45.1855 37.6726ZM46.9698 40.5614C45.2353 40.4596 43.6526 41.0938 42.3741 41.6061C41.5515 41.9359 40.8546 42.2151 40.3246 42.2151C39.7298 42.2151 39.0043 41.9209 38.1899 41.5905C37.1226 41.158 35.9024 40.6633 34.6227 40.6869C31.69 40.729 28.962 42.4244 27.4647 45.1245C24.3881 50.5253 26.6649 58.5214 29.6387 62.9173C31.0952 65.0942 32.8384 67.4807 35.1355 67.3967C36.1463 67.3579 36.8732 67.0431 37.6255 66.7172C38.4915 66.342 39.3914 65.9525 40.7963 65.9525C42.1527 65.9525 43.0132 66.332 43.839 66.6963C44.6242 67.0428 45.3786 67.3753 46.4981 67.3549C48.8775 67.3131 50.3745 65.1781 51.831 63.0009C53.4024 60.6644 54.0928 58.3842 54.1978 58.0382L54.2101 57.9982C54.2101 57.9982 54.1882 57.9864 54.1538 57.9705C53.6284 57.7249 49.6132 55.849 49.5747 50.8183C49.5362 46.5959 52.7594 44.4564 53.267 44.1196C53.2979 44.099 53.3186 44.0851 53.328 44.0781C51.277 40.9801 48.0774 40.6451 46.9698 40.5614ZM63.4394 67.1247V34.491H75.4379C81.6322 34.491 85.9598 38.8448 85.9598 45.2085C85.9598 51.5718 81.5499 55.9677 75.274 55.9677H68.403V67.1247H63.4394ZM68.403 38.7612H74.1253C78.4325 38.7612 80.8936 41.1056 80.8936 45.2294C80.8936 49.3531 78.4325 51.7184 74.1049 51.7184H68.403V38.7612ZM102.347 63.2103C101.035 65.764 98.1427 67.3758 95.0253 67.3758C90.4103 67.3758 87.1902 64.5709 87.1902 60.3426C87.1902 56.1561 90.3079 53.749 96.0713 53.393L102.265 53.0161V51.2161C102.265 48.5575 100.563 47.1132 97.5275 47.1132C95.0253 47.1132 93.1998 48.4321 92.8305 50.4414H88.3593C88.5029 46.2131 92.4 43.1361 97.671 43.1361C103.352 43.1361 107.044 46.1713 107.044 50.881V67.1247H102.45V63.2103H102.347ZM96.3583 63.5035C93.7126 63.5035 92.0307 62.2056 92.0307 60.2169C92.0307 58.1657 93.6511 56.9723 96.748 56.7842L102.265 56.4282V58.2703C102.265 61.3264 99.7219 63.5035 96.3583 63.5035ZM122.283 68.4017C120.294 74.1161 118.017 76 113.177 76C112.808 76 111.577 75.9582 111.29 75.8746V71.9601C111.597 72.002 112.356 72.0438 112.746 72.0438C114.94 72.0438 116.171 71.1018 116.93 68.6529L117.381 67.2083L108.972 43.45H114.161L120.006 62.7288H120.109L125.954 43.45H131L122.283 68.4017Z"/>
  </svg>

</svg>
