<svg xmlns="http://www.w3.org/2000/svg"
     viewBox="0 0 85.6 54"
     role="img"
     aria-label="Google Pay">

  <!-- White card -->
  <rect x="0" y="0" width="85.6" height="54"
        rx="4" ry="4"
        fill="#ffffff"/>

  <svg x="10.16"
       y="14.5"
       width="65.28"
       height="25"
       viewBox="24.5 31.5 109.3 41.8"
       preserveAspectRatio="xMidYMid meet"
       xmlns="http://www.w3.org/2000/svg">

    <path fill-rule="evenodd" clip-rule="evenodd" d="M76.2365 64.1912V51.9319L82.9007 51.9294C85.6482 51.9311 87.9573 51.072 89.8279 49.3521C91.7185 47.7196 92.7753 45.3727 92.7215 42.9266C92.7589 40.4938 91.704 38.1642 89.8279 36.5369C87.9737 34.8077 85.48 33.8642 82.9007 33.9161H72.2031V64.1912H76.2365ZM76.2365 48.2118V37.6436L83.001 37.6411C84.5086 37.6001 85.9619 38.1852 86.992 39.2475C88.0283 40.219 88.613 41.5534 88.613 42.947C88.613 44.3405 88.0283 45.6752 86.992 46.6464C85.9491 47.6864 84.5004 48.2547 83.001 48.2118H76.2365Z" fill="#5F6368"/>

    <path fill-rule="evenodd" clip-rule="evenodd" d="M109.076 45.1053C107.351 43.5688 104.998 42.8008 102.016 42.8008C98.1867 42.8008 95.2945 44.1533 93.3404 46.859L96.8931 49.0162C98.2058 47.1835 99.9887 46.2671 102.242 46.2671C103.678 46.251 105.069 46.7573 106.135 47.6851C107.199 48.533 107.81 49.797 107.801 51.1275V52.0164C106.251 51.171 104.279 50.7481 101.884 50.7481C99.0778 50.7514 96.8347 51.3859 95.1544 52.6518C93.4742 53.9174 92.6339 55.6221 92.6339 57.7655C92.5973 59.7173 93.4755 61.581 95.0242 62.8385C96.6173 64.1913 98.5974 64.8677 100.964 64.8677C103.737 64.8677 105.958 63.6839 107.628 61.3166H107.804V64.1913H111.662V51.4245C111.663 48.748 110.802 46.6416 109.076 45.1053ZM98.1356 60.3866C97.2907 59.7994 96.7924 58.8545 96.7978 57.85C96.7978 56.722 97.3464 55.7825 98.4513 55.0093C99.5453 54.2476 100.911 53.8668 102.55 53.8668C104.8 53.8668 106.554 54.3498 107.811 55.3161C107.811 56.9491 107.143 58.3718 105.807 59.5847C104.604 60.7451 102.972 61.3984 101.27 61.4011C100.135 61.4215 99.0278 61.0633 98.1356 60.3866Z" fill="#5F6368"/>

    <path fill-rule="evenodd" clip-rule="evenodd" d="M133.809 43.4775L120.34 73.3228H116.176L121.175 62.8798L112.318 43.4775H116.703L123.104 58.3578H123.191L129.417 43.4775H133.809Z" fill="#5F6368"/>

    <path fill-rule="evenodd" clip-rule="evenodd" d="M59.9369 49.2893C59.9386 48.1042 59.8345 46.921 59.6264 45.7529H42.6152V52.4515H52.3584C51.9556 54.6134 50.6541 56.5228 48.7557 57.737V62.0852H54.5706C57.9754 59.0583 59.9369 54.5821 59.9369 49.2893Z" fill="#4285F4"/>

    <path fill-rule="evenodd" clip-rule="evenodd" d="M42.6157 66.2858C47.4836 66.2858 51.5822 64.7444 54.5711 62.0874L48.7561 57.7392C47.1379 58.7972 45.0535 59.401 42.6157 59.401C37.9108 59.401 33.9173 56.3429 32.4894 52.2217H26.499V56.7027C29.5609 62.5776 35.7969 66.2853 42.6157 66.2858Z" fill="#34A853"/>

    <path fill-rule="evenodd" clip-rule="evenodd" d="M32.4892 52.2226C31.7342 50.0632 31.7342 47.7244 32.4892 45.565V41.084H26.4989C23.9379 45.9977 23.9379 51.79 26.4989 56.7037L32.4892 52.2226Z" fill="#FBBC04"/>

    <path fill-rule="evenodd" clip-rule="evenodd" d="M42.6157 38.3859C45.1881 38.3451 47.6737 39.2824 49.5355 40.9948L54.6839 36.0306C51.4192 33.0741 47.0942 31.4509 42.6157 31.5011C35.7969 31.5014 29.5609 35.2093 26.499 41.0839L32.4894 45.565C33.9173 41.444 37.9108 38.3859 42.6157 38.3859Z" fill="#EA4335"/>

  </svg>

</svg>
