<svg xmlns="http://www.w3.org/2000/svg" viewBox="0 0 10036 8936">
  <g fill="#ffffff">
    <path fill-rule="nonzero" d="M5962 4624l0 850 -737 426 -737 -426 0 -850 737 -426 737 426zm-268 154l-469 -271 -469 271 0 542 469 271 469 -271 0 -542z"/>
    <path d="M615 5077c-88,242 -137,484 -143,726 -895,-1182 -530,-2975 1206,-3465 623,-1356 2422,-1537 3220,-235 -1173,-903 -2382,-702 -2852,674 -1366,194 -1823,1349 -1431,2300z"/>
    <path d="M2424 1208c1327,-1783 4196,-1696 5315,956 203,48 371,101 521,153 -366,-19 -716,-2 -1063,31 -493,-1975 -2930,-2329 -3935,-1329 -410,30 -643,100 -838,189z"/>
    <path d="M7094 6017c1661,253 2835,-1557 1429,-2925 230,-9 459,-17 689,-26 907,1318 407,3539 -2114,3451 -1,-166 -3,-333 -4,-500z"/>
    <path d="M3475 3278c-1636,740 -2929,1875 -2249,3066 -231,-92 -452,-220 -484,-344 -286,-1095 1028,-2249 2733,-2722z"/>
    <path d="M2156 6524c-156,-1 -311,-3 -467,-5 -737,-2461 4103,-4366 7428,-3934 -3649,7 -7738,1914 -6961,3939z"/>
    <path d="M3468 5987c-61,102 -89,224 -106,347 -1356,-1588 2618,-3891 6674,-3490 -3185,-135 -7352,1684 -6568,3143z"/>
    <path d="M5229 7178l420 242 0 485 -420 242 -420 -242 0 -485 420 -242z"/>
    <path d="M2840 6417l420 243 0 484 -420 242 -419 -242 0 -484 419 -243z"/>
    <path d="M6803 4871l420 242 0 485 -420 242 -419 -242 0 -485 419 -242z"/>
    <path fill-rule="nonzero" d="M6812 6117l0 850 -737 426 -737 -426 0 -850 737 -426 737 426zm-268 154l-469 -271 -469 271 0 542 469 271 469 -271 0 -542z"/>
    <path fill-rule="nonzero" d="M5112 6117l0 850 -737 426 -738 -426 0 -850 738 -426 737 426zm-268 154l-469 -271 -469 271 0 542 469 271 469 -271 0 -542z"/>
    <path fill-rule="nonzero" d="M4332 7659l0 851 -738 426 -737 -426 0 -851 737 -425 738 425zm-269 155l-469 -271 -468 271 0 542 468 271 469 -271 0 -542z"/>
  </g>
</svg>
