<svg xmlns="http://www.w3.org/2000/svg"
     viewBox="0 0 85.6 54"
     role="img"
     aria-label="Visa">

  <rect x="0" y="0" width="85.6" height="54"
        rx="4" ry="4"
        fill="#ffffff"/>

  <svg x="8.16"
       y="16.46"
       width="65.28"
       height="21.08"
       viewBox="0 0 1920 620.07"
       preserveAspectRatio="xMidYMid meet"
       xmlns="http://www.w3.org/2000/svg">

    <path d="M728.98,10.95l-251.37,599.74h-164l-123.7-478.62c-7.51-29.48-14.04-40.28-36.88-52.7C115.76,59.14,54.18,40.17,0,28.39L3.68,10.95h263.99c33.65,0,63.9,22.4,71.54,61.15l65.33,347.04L566,10.95h162.98ZM1371.57,414.88c.66-158.29-218.88-167.01-217.37-237.72.47-21.52,20.96-44.4,65.81-50.24,22.23-2.91,83.48-5.13,152.95,26.84l27.25-127.18c-37.33-13.55-85.36-26.59-145.12-26.59-153.35,0-261.27,81.52-262.18,198.25-.99,86.34,77.03,134.52,135.81,163.21,60.47,29.38,80.76,48.26,80.53,74.54-.43,40.23-48.23,57.99-92.9,58.69-77.98,1.2-123.23-21.1-159.3-37.87l-28.12,131.39c36.25,16.63,103.16,31.14,172.53,31.87,162.99,0,269.61-80.51,270.11-205.19M1776.51,610.7h143.49L1794.75,10.95h-132.44c-29.78,0-54.9,17.34-66.02,44l-232.81,555.74h162.91l32.35-89.59h199.05l18.73,89.59ZM1603.4,398.19l81.66-225.18,47,225.18h-128.65ZM950.66,10.95l-128.29,599.74h-155.14L795.57,10.95h155.09Z"
          fill="#1434cb"/>
  </svg>

</svg>
